<?xml version="1.0" encoding="UTF-8" standalone="no"?>
<!DOCTYPE svg PUBLIC "-//W3C//DTD SVG 1.1//EN" "http://www.w3.org/Graphics/SVG/1.1/DTD/svg11.dtd">
<svg viewBox="0 0 460 460" version="1.1" xmlns="http://www.w3.org/2000/svg" xmlns:xlink="http://www.w3.org/1999/xlink" xml:space="preserve" style="fill-rule:evenodd;clip-rule:evenodd;stroke-linejoin:round;stroke-miterlimit:1.41421;">
<path d="M252.283 185.143c1.354 10.778 9.843 19.267 20.621 20.622c49.311 6.195 181.143 22.759 181.143 22.759c0 0-131.832 16.563-181.143 22.759c-10.778 1.354-19.267 9.843-20.621 20.621c-6.196 49.311-22.759 181.143-22.759 181.143c0 0-16.564-131.832-22.759-181.143c-1.355-10.778-9.844-19.267-20.622-20.621c-49.311-6.196-181.143-22.759-181.143-22.759c0 0 131.832-16.564 181.143-22.759c10.778-1.355 19.267-9.844 20.622-20.622c6.195-49.311 22.759-181.143 22.759-181.143c0 0 16.563 131.832 22.759 181.143z"/>
</svg>
